<svg xmlns="http://www.w3.org/2000/svg" width="32.753" height="31.447" viewBox="0 0 32.753 31.447">
  <path id="shopping-cart-solid" d="M30.03,18.507,32.718,5.732a1.45,1.45,0,0,0-1.331-1.8H9.053L8.532,1.179A1.4,1.4,0,0,0,7.195,0H1.365A1.423,1.423,0,0,0,0,1.474v.983A1.423,1.423,0,0,0,1.365,3.931H5.338L9.333,25.025a3.494,3.494,0,0,0-1.6,2.983,3.319,3.319,0,0,0,3.184,3.44,3.319,3.319,0,0,0,3.184-3.44,3.568,3.568,0,0,0-.957-2.457H25.066a3.568,3.568,0,0,0-.957,2.457,3.194,3.194,0,1,0,6.369,0,3.472,3.472,0,0,0-1.8-3.1L29,23.421a1.45,1.45,0,0,0-1.331-1.8H12.4l-.372-1.965H28.7A1.392,1.392,0,0,0,30.03,18.507Z" fill="#f3f3f3"/>
</svg>
